<svg viewBox="0 0 400 400" xmlns="http://www.w3.org/2000/svg">
  <defs>
    <linearGradient id="chocolateCup" x1="0%" y1="0%" x2="100%" y2="100%">
      <stop offset="0%" style="stop-color:#8b4513;stop-opacity:1" />
      <stop offset="100%" style="stop-color:#5d2e0a;stop-opacity:1" />
    </linearGradient>
    <linearGradient id="chocolatLiquid" x1="0%" y1="0%" x2="100%" y2="100%">
      <stop offset="0%" style="stop-color:#6f4e37;stop-opacity:1" />
      <stop offset="100%" style="stop-color:#3c2415;stop-opacity:1" />
    </linearGradient>
    <linearGradient id="chantilly" x1="0%" y1="0%" x2="100%" y2="100%">
      <stop offset="0%" style="stop-color:#ffffff;stop-opacity:1" />
      <stop offset="100%" style="stop-color:#f8f8ff;stop-opacity:1" />
    </linearGradient>
  </defs>
  
  <!-- Fond chaleureux -->
  <rect width="400" height="400" fill="#2f1b14"/>
  
  <!-- Soucoupe -->
  <ellipse cx="200" cy="360" rx="110" ry="15" fill="#8b4513" opacity="0.6"/>
  
  <!-- Tasse chocolat -->
  <path d="M90 170 Q90 330 200 330 Q310 330 310 170 L280 170 Q280 300 200 300 Q120 300 120 170 Z" 
        fill="url(#chocolateCup)" stroke="#654321" stroke-width="2"/>
  
  <!-- Anse -->
  <path d="M310 190 Q350 190 350 230 Q350 270 310 270" 
        fill="none" stroke="#654321" stroke-width="8" stroke-linecap="round"/>
  <path d="M310 200 Q340 200 340 230 Q340 260 310 260" 
        fill="none" stroke="url(#chocolateCup)" stroke-width="4" stroke-linecap="round"/>
  
  <!-- Chocolat chaud -->
  <ellipse cx="200" cy="180" rx="90" ry="15" fill="url(#chocolatLiquid)"/>
  
  <!-- Chantilly généreuse -->
  <ellipse cx="200" cy="165" rx="85" ry="25" fill="url(#chantilly)"/>
  <circle cx="170" cy="155" r="15" fill="#ffffff" opacity="0.9"/>
  <circle cx="220" cy="160" r="12" fill="#ffffff" opacity="0.8"/>
  <circle cx="200" cy="145" r="18" fill="#ffffff" opacity="0.95"/>
  <circle cx="185" cy="170" r="8" fill="#ffffff" opacity="0.7"/>
  <circle cx="215" cy="175" r="10" fill="#ffffff" opacity="0.85"/>
  
  <!-- Poudre de chocolat -->
  <circle cx="190" cy="150" r="1" fill="#8b4513" opacity="0.8"/>
  <circle cx="210" cy="155" r="1.5" fill="#8b4513" opacity="0.6"/>
  <circle cx="180" cy="165" r="1" fill="#8b4513" opacity="0.9"/>
  <circle cx="205" cy="140" r="1" fill="#8b4513" opacity="0.7"/>
  <circle cx="225" cy="170" r="1" fill="#8b4513" opacity="0.8"/>
  
  <!-- Vapeur chaude -->
  <path d="M160 120 Q165 100 160 80 Q155 60 160 40" 
        stroke="#ffffff" stroke-width="2" fill="none" opacity="0.5" stroke-linecap="round"/>
  <path d="M200 115 Q205 95 200 75 Q195 55 200 35" 
        stroke="#ffffff" stroke-width="2" fill="none" opacity="0.6" stroke-linecap="round"/>
  <path d="M240 120 Q245 100 240 80 Q235 60 240 40" 
        stroke="#ffffff" stroke-width="2" fill="none" opacity="0.5" stroke-linecap="round"/>
  
  <!-- Reflets dorés -->
  <path d="M120 180 Q140 170 160 180" 
        stroke="#d4a574" stroke-width="2" fill="none" opacity="0.4" stroke-linecap="round"/>
</svg>