<svg viewBox="0 0 400 400" xmlns="http://www.w3.org/2000/svg">
  <defs>
    <linearGradient id="croissantGradient" x1="0%" y1="0%" x2="100%" y2="100%">
      <stop offset="0%" style="stop-color:#f4d03f;stop-opacity:1" />
      <stop offset="50%" style="stop-color:#f39c12;stop-opacity:1" />
      <stop offset="100%" style="stop-color:#d68910;stop-opacity:1" />
    </linearGradient>
    <linearGradient id="shadowGradient" x1="0%" y1="0%" x2="100%" y2="100%">
      <stop offset="0%" style="stop-color:#b7950b;stop-opacity:0.3" />
      <stop offset="100%" style="stop-color:#935116;stop-opacity:0.6" />
    </linearGradient>
  </defs>
  
  <!-- Fond boulangerie -->
  <rect width="400" height="400" fill="#f8f4e6"/>
  
  <!-- Ombre du croissant -->
  <ellipse cx="210" cy="320" rx="120" ry="25" fill="url(#shadowGradient)"/>
  
  <!-- Corps principal du croissant -->
  <path d="M80 220 Q120 180 180 190 Q240 200 280 180 Q320 160 350 200 Q340 240 300 260 Q250 280 200 270 Q150 260 120 240 Q90 230 80 220 Z" 
        fill="url(#croissantGradient)" stroke="#d68910" stroke-width="2"/>
  
  <!-- Pointe du croissant -->
  <path d="M350 200 Q380 180 390 160 Q385 140 370 150 Q360 160 350 200" 
        fill="url(#croissantGradient)" stroke="#d68910" stroke-width="2"/>
  
  <!-- Détails feuilletés -->
  <path d="M100 210 Q140 200 180 210 Q220 220 260 210 Q300 200 340 210" 
        stroke="#e67e22" stroke-width="3" fill="none" opacity="0.8"/>
  <path d="M110 230 Q150 220 190 230 Q230 240 270 230 Q310 220 330 230" 
        stroke="#e67e22" stroke-width="2" fill="none" opacity="0.6"/>
  <path d="M120 250 Q160 240 200 250 Q240 260 280 250" 
        stroke="#e67e22" stroke-width="2" fill="none" opacity="0.7"/>
  
  <!-- Texture dorée -->
  <circle cx="150" cy="220" r="8" fill="#f1c40f" opacity="0.7"/>
  <circle cx="200" cy="230" r="6" fill="#f1c40f" opacity="0.5"/>
  <circle cx="250" cy="215" r="7" fill="#f1c40f" opacity="0.6"/>
  <circle cx="180" cy="245" r="5" fill="#f1c40f" opacity="0.8"/>
  <circle cx="280" cy="235" r="4" fill="#f1c40f" opacity="0.6"/>
  
  <!-- Reflets -->
  <path d="M120 200 Q160 190 200 200 Q240 210 280 200" 
        stroke="#f7dc6f" stroke-width="2" fill="none" opacity="0.9"/>
  
  <!-- Miettes -->
  <circle cx="100" cy="280" r="2" fill="#d68910" opacity="0.8"/>
  <circle cx="320" cy="290" r="1.5" fill="#d68910" opacity="0.7"/>
  <circle cx="250" cy="295" r="1" fill="#d68910" opacity="0.6"/>
  <circle cx="180" cy="285" r="1.5" fill="#d68910" opacity="0.9"/>
</svg>