<svg viewBox="0 0 400 400" xmlns="http://www.w3.org/2000/svg">
  <defs>
    <linearGradient id="espressoCup" x1="0%" y1="0%" x2="100%" y2="100%">
      <stop offset="0%" style="stop-color:#2c3e50;stop-opacity:1" />
      <stop offset="100%" style="stop-color:#34495e;stop-opacity:1" />
    </linearGradient>
    <linearGradient id="espressoLiquid" x1="0%" y1="0%" x2="100%" y2="100%">
      <stop offset="0%" style="stop-color:#4a2c2a;stop-opacity:1" />
      <stop offset="100%" style="stop-color:#2c1810;stop-opacity:1" />
    </linearGradient>
    <linearGradient id="crema" x1="0%" y1="0%" x2="100%" y2="100%">
      <stop offset="0%" style="stop-color:#d4a574;stop-opacity:1" />
      <stop offset="100%" style="stop-color:#c19a6b;stop-opacity:1" />
    </linearGradient>
  </defs>
  
  <!-- Fond élégant -->
  <rect width="400" height="400" fill="#1a1a1a"/>
  
  <!-- Soucoupe -->
  <ellipse cx="200" cy="350" rx="80" ry="10" fill="#555" opacity="0.6"/>
  
  <!-- Tasse espresso -->
  <path d="M120 200 Q120 300 200 300 Q280 300 280 200 L260 200 Q260 280 200 280 Q140 280 140 200 Z" 
        fill="url(#espressoCup)" stroke="#555" stroke-width="2"/>
  
  <!-- Anse élégante -->
  <path d="M280 220 Q310 220 310 250 Q310 280 280 280" 
        fill="none" stroke="#555" stroke-width="6" stroke-linecap="round"/>
  <path d="M280 225 Q305 225 305 250 Q305 275 280 275" 
        fill="none" stroke="url(#espressoCup)" stroke-width="3" stroke-linecap="round"/>
  
  <!-- Espresso -->
  <ellipse cx="200" cy="210" rx="65" ry="12" fill="url(#espressoLiquid)"/>
  
  <!-- Crema -->
  <ellipse cx="200" cy="205" rx="60" ry="8" fill="url(#crema)"/>
  <circle cx="180" cy="202" r="3" fill="#e6c78a" opacity="0.7"/>
  <circle cx="210" cy="204" r="2" fill="#e6c78a" opacity="0.5"/>
  <circle cx="195" cy="200" r="2" fill="#e6c78a" opacity="0.8"/>
  
  <!-- Vapeur subtile -->
  <path d="M180 180 Q182 160 180 140 Q178 120 180 100" 
        stroke="#ffffff" stroke-width="1.5" fill="none" opacity="0.2" stroke-linecap="round"/>
  <path d="M200 175 Q202 155 200 135 Q198 115 200 95" 
        stroke="#ffffff" stroke-width="1.5" fill="none" opacity="0.3" stroke-linecap="round"/>
  <path d="M220 180 Q222 160 220 140 Q218 120 220 100" 
        stroke="#ffffff" stroke-width="1.5" fill="none" opacity="0.2" stroke-linecap="round"/>
  
  <!-- Reflets sur la tasse -->
  <path d="M140 210 Q150 200 160 210" 
        stroke="#ffffff" stroke-width="2" fill="none" opacity="0.3" stroke-linecap="round"/>
</svg>