<svg viewBox="0 0 400 400" xmlns="http://www.w3.org/2000/svg">
  <defs>
    <linearGradient id="macaron1" x1="0%" y1="0%" x2="100%" y2="100%">
      <stop offset="0%" style="stop-color:#ff6b9d;stop-opacity:1" />
      <stop offset="100%" style="stop-color:#e91e63;stop-opacity:1" />
    </linearGradient>
    <linearGradient id="macaron2" x1="0%" y1="0%" x2="100%" y2="100%">
      <stop offset="0%" style="stop-color:#4fc3f7;stop-opacity:1" />
      <stop offset="100%" style="stop-color:#0288d1;stop-opacity:1" />
    </linearGradient>
    <linearGradient id="macaron3" x1="0%" y1="0%" x2="100%" y2="100%">
      <stop offset="0%" style="stop-color:#81c784;stop-opacity:1" />
      <stop offset="100%" style="stop-color:#4caf50;stop-opacity:1" />
    </linearGradient>
    <linearGradient id="cream" x1="0%" y1="0%" x2="100%" y2="100%">
      <stop offset="0%" style="stop-color:#fff3e0;stop-opacity:1" />
      <stop offset="100%" style="stop-color:#ffe0b2;stop-opacity:1" />
    </linearGradient>
  </defs>
  
  <!-- Fond pâtisserie -->
  <rect width="400" height="400" fill="#fef7f0"/>
  
  <!-- Ombres des macarons -->
  <ellipse cx="120" cy="320" rx="35" ry="8" fill="#000" opacity="0.1"/>
  <ellipse cx="200" cy="330" rx="40" ry="10" fill="#000" opacity="0.1"/>
  <ellipse cx="280" cy="325" rx="35" ry="8" fill="#000" opacity="0.1"/>
  
  <!-- Macaron rose (à gauche) -->
  <ellipse cx="120" cy="280" rx="30" ry="15" fill="url(#macaron1)"/>
  <ellipse cx="120" cy="290" rx="28" ry="8" fill="url(#cream)"/>
  <ellipse cx="120" cy="300" rx="30" ry="15" fill="url(#macaron1)"/>
  <!-- Texture macaron rose -->
  <circle cx="105" cy="275" r="2" fill="#ff8a80" opacity="0.6"/>
  <circle cx="130" cy="278" r="1.5" fill="#ff8a80" opacity="0.8"/>
  <circle cx="115" cy="285" r="1" fill="#ff8a80" opacity="0.7"/>
  
  <!-- Macaron bleu (centre) -->
  <ellipse cx="200" cy="200" rx="35" ry="18" fill="url(#macaron2)"/>
  <ellipse cx="200" cy="212" rx="33" ry="10" fill="url(#cream)"/>
  <ellipse cx="200" cy="224" rx="35" ry="18" fill="url(#macaron2)"/>
  <!-- Texture macaron bleu -->
  <circle cx="180" cy="195" r="2" fill="#81d4fa" opacity="0.6"/>
  <circle cx="215" cy="198" r="1.5" fill="#81d4fa" opacity="0.8"/>
  <circle cx="190" cy="205" r="1" fill="#81d4fa" opacity="0.7"/>
  <circle cx="210" cy="230" r="2" fill="#81d4fa" opacity="0.5"/>
  
  <!-- Macaron vert (à droite) -->
  <ellipse cx="280" cy="270" rx="32" ry="16" fill="url(#macaron3)"/>
  <ellipse cx="280" cy="282" rx="30" ry="9" fill="url(#cream)"/>
  <ellipse cx="280" cy="294" rx="32" ry="16" fill="url(#macaron3)"/>
  <!-- Texture macaron vert -->
  <circle cx="265" cy="265" r="2" fill="#a5d6a7" opacity="0.6"/>
  <circle cx="290" cy="268" r="1.5" fill="#a5d6a7" opacity="0.8"/>
  <circle cx="275" cy="275" r="1" fill="#a5d6a7" opacity="0.7"/>
  
  <!-- Macaron violet (arrière-plan) -->
  <ellipse cx="150" cy="150" rx="28" ry="14" fill="#ba68c8"/>
  <ellipse cx="150" cy="160" rx="26" ry="7" fill="url(#cream)"/>
  <ellipse cx="150" cy="170" rx="28" ry="14" fill="#ba68c8"/>
  
  <!-- Macaron jaune (arrière-plan) -->
  <ellipse cx="320" cy="180" rx="25" ry="12" fill="#ffd54f"/>
  <ellipse cx="320" cy="188" rx="23" ry="6" fill="url(#cream)"/>
  <ellipse cx="320" cy="196" rx="25" ry="12" fill="#ffd54f"/>
  
  <!-- Miettes délicates -->
  <circle cx="160" cy="320" r="1" fill="#ff6b9d" opacity="0.4"/>
  <circle cx="240" cy="310" r="1.5" fill="#4fc3f7" opacity="0.3"/>
  <circle cx="300" cy="315" r="1" fill="#81c784" opacity="0.5"/>
  
  <!-- Brillance -->
  <ellipse cx="200" cy="190" rx="8" ry="4" fill="#ffffff" opacity="0.4"/>
  <ellipse cx="120" cy="270" rx="6" ry="3" fill="#ffffff" opacity="0.3"/>
  <ellipse cx="280" cy="260" rx="7" ry="3" fill="#ffffff" opacity="0.35"/>
</svg>