<svg viewBox="0 0 400 400" xmlns="http://www.w3.org/2000/svg">
  <defs>
    <linearGradient id="breadGradient" x1="0%" y1="0%" x2="100%" y2="100%">
      <stop offset="0%" style="stop-color:#f4a460;stop-opacity:1" />
      <stop offset="100%" style="stop-color:#daa520;stop-opacity:1" />
    </linearGradient>
    <linearGradient id="lettuceGradient" x1="0%" y1="0%" x2="100%" y2="100%">
      <stop offset="0%" style="stop-color:#8bc34a;stop-opacity:1" />
      <stop offset="100%" style="stop-color:#689f38;stop-opacity:1" />
    </linearGradient>
    <linearGradient id="tomatoGradient" x1="0%" y1="0%" x2="100%" y2="100%">
      <stop offset="0%" style="stop-color:#ff6b6b;stop-opacity:1" />
      <stop offset="100%" style="stop-color:#e53e3e;stop-opacity:1" />
    </linearGradient>
    <linearGradient id="cheeseGradient" x1="0%" y1="0%" x2="100%" y2="100%">
      <stop offset="0%" style="stop-color:#ffd700;stop-opacity:1" />
      <stop offset="100%" style="stop-color:#ffb000;stop-opacity:1" />
    </linearGradient>
  </defs>
  
  <!-- Fond -->
  <rect width="400" height="400" fill="#f8f5f0"/>
  
  <!-- Ombre de l'assiette -->
  <ellipse cx="200" cy="350" rx="140" ry="25" fill="#000" opacity="0.1"/>
  
  <!-- Assiette -->
  <ellipse cx="200" cy="320" rx="130" ry="20" fill="#ffffff" stroke="#e0e0e0" stroke-width="2"/>
  
  <!-- Pain du dessous -->
  <ellipse cx="200" cy="260" rx="80" ry="20" fill="url(#breadGradient)"/>
  <path d="M120 260 Q120 240 200 240 Q280 240 280 260 Q280 280 200 280 Q120 280 120 260" 
        fill="url(#breadGradient)" stroke="#cd853f" stroke-width="1"/>
  
  <!-- Salade -->
  <ellipse cx="200" cy="250" rx="75" ry="8" fill="url(#lettuceGradient)"/>
  <path d="M140 245 Q130 240 145 242 Q155 248 150 245" fill="#7cb342" opacity="0.8"/>
  <path d="M220 248 Q235 243 240 250 Q230 252 220 248" fill="#7cb342" opacity="0.9"/>
  <path d="M260 246 Q270 241 265 248 Q255 250 260 246" fill="#7cb342" opacity="0.7"/>
  
  <!-- Tomate -->
  <ellipse cx="180" cy="245" rx="15" ry="4" fill="url(#tomatoGradient)"/>
  <ellipse cx="220" cy="243" rx="12" ry="3" fill="url(#tomatoGradient)"/>
  <ellipse cx="200" cy="247" rx="10" ry="3" fill="url(#tomatoGradient)"/>
  
  <!-- Fromage -->
  <path d="M150 240 Q170 235 190 240 Q210 245 230 240 Q250 235 270 240 Q260 245 240 245 Q220 250 200 245 Q180 240 160 245 Q155 242 150 240" 
        fill="url(#cheeseGradient)" opacity="0.9"/>
  
  <!-- Jambon/Dinde -->
  <ellipse cx="190" cy="238" rx="20" ry="6" fill="#deb887" opacity="0.8"/>
  <ellipse cx="230" cy="240" rx="18" ry="5" fill="#deb887" opacity="0.9"/>
  <ellipse cx="210" cy="235" rx="15" ry="4" fill="#deb887" opacity="0.7"/>
  
  <!-- Pain du dessus -->
  <path d="M120 230 Q120 210 200 210 Q280 210 280 230 Q280 235 200 235 Q120 235 120 230" 
        fill="url(#breadGradient)" stroke="#cd853f" stroke-width="1"/>
  
  <!-- Graines de sésame -->
  <circle cx="160" cy="220" r="2" fill="#f5deb3"/>
  <circle cx="180" cy="215" r="1.5" fill="#f5deb3"/>
  <circle cx="220" cy="218" r="2" fill="#f5deb3"/>
  <circle cx="240" cy="222" r="1.5" fill="#f5deb3"/>
  <circle cx="200" cy="216" r="1" fill="#f5deb3"/>
  
  <!-- Frites -->
  <rect x="300" y="280" width="8" height="35" fill="#ffd700" transform="rotate(10 304 297.5)"/>
  <rect x="315" y="275" width="8" height="40" fill="#ffd700" transform="rotate(-5 319 295)"/>
  <rect x="330" y="285" width="8" height="30" fill="#ffd700" transform="rotate(15 334 300)"/>
  <rect x="310" y="295" width="8" height="25" fill="#ffd700" transform="rotate(-10 314 307.5)"/>
  <rect x="325" y="300" width="8" height="20" fill="#ffd700" transform="rotate(5 329 310)"/>
  
  <!-- Cure-dent décoratif -->
  <line x1="200" y1="200" x2="200" y2="170" stroke="#8b4513" stroke-width="2"/>
  <circle cx="200" cy="170" r="3" fill="#ff4757"/>
  
  <!-- Reflets -->
  <ellipse cx="180" cy="225" rx="15" ry="3" fill="#ffffff" opacity="0.3"/>
  <ellipse cx="220" cy="220" rx="12" ry="2" fill="#ffffff" opacity="0.2"/>
</svg>